<svg aria-hidden="true" style="position: absolute; width: 0; height: 0; overflow: hidden;" version="1.1" xmlns="http://www.w3.org/2000/svg" xmlns:xlink="http://www.w3.org/1999/xlink">
<defs>
<symbol id="icon-apple-logo" viewBox="0 0 32 32">
<path d="M15.563 8.466c0.050 0.002 0.1 0.002 0.15 0.002 0 0 0 0 0 0 1.777 0 3.705-1.002 4.912-2.552 1.245-1.598 1.811-3.515 1.552-5.259-0.059-0.398-0.416-0.685-0.817-0.656-1.751 0.123-3.734 1.188-4.933 2.65-1.305 1.589-1.903 3.527-1.599 5.183 0.066 0.357 0.371 0.62 0.734 0.632zM17.62 3.63c0.744-0.907 1.948-1.656 3.076-1.956-0.054 1.534-0.887 2.782-1.287 3.296-0.779 1-1.976 1.72-3.119 1.909 0.023-1.526 0.996-2.841 1.33-3.248z"></path>
<path d="M29.054 23.268c-0.082-0.196-0.241-0.35-0.44-0.425-3.175-1.197-4.17-4.639-3.27-7.141 0.445-1.241 1.32-2.25 2.531-2.917 0.199-0.11 0.34-0.302 0.384-0.525s-0.012-0.455-0.155-0.632c-1.609-2.008-3.897-3.207-6.12-3.207-1.556 0-2.609 0.399-3.539 0.752-0.685 0.26-1.276 0.484-1.953 0.484-0.75 0-1.433-0.245-2.225-0.529-0.926-0.332-1.975-0.707-3.285-0.707-2.527 0-5.087 1.528-6.684 3.989-0.591 0.915-1.005 2.046-1.232 3.363-0.638 3.744 0.443 8.206 2.891 11.936 1.388 2.111 3.138 4.271 5.585 4.292l0.050 0c1.020 0 1.705-0.306 2.369-0.603 0.701-0.313 1.363-0.609 2.562-0.615l0.039-0c1.177 0 1.818 0.294 2.496 0.606 0.65 0.298 1.323 0.607 2.34 0.607l0.047-0c2.399-0.020 4.215-2.293 5.677-4.516 0.899-1.377 1.241-2.080 1.922-3.599 0.087-0.194 0.090-0.415 0.008-0.612zM25.833 26.634c-1.165 1.771-2.717 3.805-4.402 3.819l-0.033 0c-0.68 0-1.129-0.206-1.697-0.466-0.724-0.332-1.626-0.746-3.139-0.746l-0.048 0c-1.524 0.008-2.444 0.419-3.183 0.749-0.586 0.262-1.049 0.469-1.74 0.469l-0.036-0c-1.734-0.015-3.214-1.93-4.311-3.597-2.239-3.412-3.233-7.46-2.659-10.829 0.191-1.109 0.53-2.047 1.006-2.785 1.314-2.026 3.379-3.285 5.389-3.285 1.043 0 1.88 0.3 2.765 0.617 0.849 0.304 1.728 0.619 2.745 0.619 0.96 0 1.743-0.297 2.5-0.584 0.845-0.32 1.719-0.652 2.992-0.652 1.515 0 3.089 0.73 4.34 1.984-1.131 0.825-1.964 1.928-2.432 3.234-1.221 3.394 0.307 7.158 3.427 8.771-0.464 1.006-0.793 1.62-1.486 2.682z"></path>
</symbol>
<symbol id="icon-shopping-cart" viewBox="0 0 37 32">
<path d="M1.161 2.352c-0.625 0-1.161-0.536-1.161-1.191 0-0.625 0.536-1.161 1.161-1.161h3.036c0.030 0 0.089 0 0.119 0 1.072 0.030 2.024 0.238 2.828 0.744 0.893 0.566 1.548 1.429 1.905 2.709 0 0.030 0 0.060 0.030 0.089l0.298 1.191h26.047c0.655 0 1.161 0.536 1.161 1.161 0 0.119-0.030 0.238-0.060 0.357l-3.036 12.234c-0.119 0.536-0.595 0.893-1.131 0.893v0h-19.051c0.417 1.548 0.834 2.381 1.399 2.768 0.685 0.447 1.875 0.476 3.87 0.447h13.485c0.655 0 1.161 0.536 1.161 1.161 0 0.655-0.536 1.161-1.161 1.161h-13.455c-2.471 0.030-3.989-0.030-5.209-0.834-1.25-0.834-1.905-2.262-2.56-4.852v0l-3.989-15.092c0-0.030 0-0.030-0.030-0.060-0.179-0.655-0.476-1.101-0.893-1.34-0.417-0.268-0.982-0.387-1.637-0.387-0.030 0-0.060 0-0.089 0h-3.036zM28.577 26.285c1.578 0 2.858 1.28 2.858 2.858s-1.28 2.858-2.858 2.858c-1.578 0-2.858-1.28-2.858-2.858s1.28-2.858 2.858-2.858v0zM16.045 26.285c1.578 0 2.858 1.28 2.858 2.858s-1.28 2.858-2.858 2.858c-1.578 0-2.858-1.28-2.858-2.858s1.28-2.858 2.858-2.858v0zM10.032 7.055l2.649 9.972h18.783l2.471-9.972h-23.903z"></path>
</symbol>
<symbol id="icon-mobile-screen" viewBox="0 0 15 24">
<path fill="#02897a" style="fill: var(--color1, #02897a)" d="M12.701 1.714h-9.974c-1.032 0-1.87 0.864-1.87 1.929v16.714c0 1.065 0.838 1.929 1.87 1.929h9.974c1.032 0 1.87-0.864 1.87-1.929v-16.714c0-1.065-0.838-1.929-1.87-1.929zM9.584 19.678c0 0.39-0.281 0.679-0.623 0.679h-2.529c-0.308 0-0.588-0.289-0.588-0.643s0.281-0.643 0.623-0.643h2.493c0.343 0 0.623 0.289 0.623 0.607zM12.078 17.143h-8.727v-12.857h8.727v12.857z"></path>
</symbol>
<symbol id="icon-send-clock" viewBox="0 0 20 24">
<path fill="#fff" style="fill: var(--color2, #fff)" d="M17.748 2.017h1.21c0.227 0 0.403-0.176 0.403-0.403v-0.807c0-0.227-0.176-0.403-0.403-0.403h-18.555c-0.227 0-0.403 0.176-0.403 0.403v0.807c0 0.227 0.176 0.403 0.403 0.403h1.21c0 4.664 2.231 8.042 4.702 9.681-2.471 1.639-4.702 5.017-4.702 9.681h-1.21c-0.227 0-0.403 0.176-0.403 0.403v0.807c0 0.227 0.176 0.403 0.403 0.403h18.555c0.227 0 0.403-0.176 0.403-0.403v-0.807c0-0.227-0.176-0.403-0.403-0.403h-1.21c0-4.664-2.231-8.042-4.702-9.681 2.471-1.639 4.702-5.017 4.702-9.681zM16.134 2.017c0 1.84-0.416 3.466-1.072 4.84h-10.765c-0.655-1.374-1.071-3-1.071-4.84h12.908zM15.416 17.345h-11.471c0.933-2.433 2.609-4.16 4.286-4.84h2.899c1.676 0.681 3.353 2.408 4.286 4.84z"></path>
</symbol>
<symbol id="icon-starempty" viewBox="0 0 25 24">
<path fill="#f3cd03" style="fill: var(--color3, #f3cd03)" d="M6.468 14.787l-1.815 7.741c-0.056 0.234-0.039 0.48 0.048 0.705s0.242 0.418 0.444 0.555c0.201 0.137 0.44 0.211 0.684 0.212s0.484-0.070 0.687-0.204l6.634-4.355 6.634 4.355c0.208 0.136 0.452 0.206 0.701 0.2s0.491-0.086 0.692-0.23c0.201-0.144 0.353-0.346 0.434-0.578s0.089-0.483 0.021-0.719l-2.228-7.678 5.527-4.897c0.177-0.157 0.303-0.362 0.364-0.588s0.051-0.466-0.025-0.688c-0.077-0.222-0.217-0.417-0.405-0.561s-0.415-0.231-0.652-0.249l-6.946-0.545-3.006-6.552c-0.096-0.211-0.252-0.39-0.449-0.516s-0.427-0.193-0.661-0.193c-0.235 0-0.464 0.067-0.661 0.193s-0.353 0.305-0.449 0.516l-3.006 6.552-6.946 0.543c-0.233 0.018-0.456 0.102-0.643 0.242s-0.327 0.329-0.407 0.546c-0.080 0.217-0.094 0.452-0.042 0.676s0.169 0.43 0.337 0.591l5.134 4.927zM9.944 9.597c0.217-0.017 0.426-0.091 0.605-0.215s0.32-0.292 0.409-0.488l2.192-4.776 2.192 4.776c0.089 0.196 0.231 0.365 0.409 0.488s0.387 0.198 0.605 0.215l4.839 0.378-3.985 3.532c-0.346 0.307-0.484 0.78-0.357 1.221l1.527 5.261-4.552-2.989c-0.2-0.132-0.435-0.203-0.676-0.203s-0.476 0.071-0.676 0.203l-4.757 3.123 1.279-5.454c0.047-0.201 0.041-0.41-0.018-0.607s-0.168-0.377-0.318-0.521l-3.701-3.554 4.983-0.391z"></path>
</symbol>
<symbol id="icon-starfull" viewBox="0 0 27 24">
<path fill="#f3cd03" style="fill: var(--color3, #f3cd03)" d="M25.36 8.615c-0.077-0.222-0.217-0.417-0.405-0.561s-0.415-0.231-0.652-0.25l-6.946-0.543-3.006-6.552c-0.096-0.211-0.251-0.39-0.448-0.516s-0.427-0.193-0.661-0.193c-0.235-0-0.464 0.067-0.661 0.192s-0.353 0.305-0.449 0.516l-3.006 6.553-6.946 0.543c-0.233 0.018-0.456 0.102-0.643 0.242s-0.327 0.329-0.407 0.546c-0.080 0.217-0.094 0.452-0.042 0.676s0.169 0.43 0.337 0.591l5.133 4.927-1.815 7.741c-0.055 0.234-0.037 0.479 0.051 0.704s0.243 0.417 0.444 0.554c0.201 0.137 0.439 0.211 0.683 0.213s0.483-0.069 0.686-0.202l6.634-4.355 6.634 4.355c0.207 0.136 0.452 0.205 0.701 0.2s0.49-0.086 0.692-0.23 0.353-0.346 0.434-0.578c0.081-0.232 0.089-0.483 0.021-0.719l-2.228-7.678 5.527-4.897c0.362-0.322 0.495-0.823 0.339-1.278z"></path>
</symbol>
<symbol id="icon-stars" viewBox="0 0 141 24">
<path d="M24.303 8.615c-0.077-0.222-0.217-0.417-0.405-0.561s-0.415-0.231-0.652-0.25l-6.946-0.543-3.006-6.552c-0.096-0.211-0.251-0.39-0.448-0.516s-0.427-0.193-0.661-0.193c-0.235-0-0.464 0.067-0.661 0.192s-0.353 0.305-0.449 0.516l-3.006 6.553-6.946 0.543c-0.233 0.018-0.456 0.102-0.643 0.242s-0.327 0.329-0.407 0.546c-0.080 0.217-0.094 0.452-0.042 0.676s0.169 0.43 0.337 0.591l5.133 4.927-1.815 7.741c-0.055 0.234-0.037 0.479 0.051 0.704s0.243 0.417 0.444 0.554c0.201 0.137 0.439 0.211 0.683 0.213s0.483-0.069 0.686-0.202l6.634-4.355 6.634 4.355c0.208 0.136 0.452 0.205 0.701 0.2s0.49-0.086 0.692-0.23c0.201-0.145 0.353-0.346 0.434-0.578s0.089-0.483 0.021-0.719l-2.229-7.678 5.527-4.897c0.362-0.322 0.495-0.823 0.339-1.278z"></path>
<path  d="M53.545 8.615c-0.077-0.222-0.217-0.417-0.405-0.561s-0.415-0.231-0.652-0.25l-6.946-0.543-3.006-6.552c-0.096-0.211-0.251-0.39-0.448-0.516s-0.427-0.193-0.661-0.193c-0.235-0-0.464 0.067-0.661 0.192s-0.353 0.305-0.449 0.516l-3.006 6.553-6.946 0.543c-0.233 0.018-0.456 0.102-0.643 0.242s-0.327 0.329-0.407 0.546-0.094 0.452-0.042 0.676c0.052 0.225 0.169 0.43 0.337 0.591l5.133 4.927-1.815 7.741c-0.055 0.234-0.037 0.479 0.051 0.704s0.243 0.417 0.444 0.554c0.201 0.137 0.439 0.211 0.683 0.213s0.483-0.069 0.686-0.202l6.634-4.355 6.634 4.355c0.208 0.136 0.452 0.205 0.701 0.2s0.491-0.086 0.692-0.23c0.201-0.145 0.353-0.346 0.434-0.578s0.089-0.483 0.021-0.719l-2.229-7.678 5.527-4.897c0.362-0.322 0.495-0.823 0.339-1.278z"></path>
<path d="M82.782 8.615c-0.077-0.222-0.218-0.417-0.405-0.561s-0.415-0.231-0.652-0.25l-6.946-0.543-3.006-6.552c-0.096-0.211-0.251-0.39-0.448-0.516s-0.427-0.193-0.661-0.193c-0.235-0-0.465 0.067-0.661 0.192s-0.353 0.305-0.449 0.516l-3.006 6.553-6.946 0.543c-0.233 0.018-0.457 0.102-0.643 0.242s-0.327 0.329-0.407 0.546c-0.080 0.217-0.094 0.452-0.042 0.676s0.169 0.43 0.337 0.591l5.133 4.927-1.815 7.741c-0.055 0.234-0.037 0.479 0.051 0.704s0.243 0.417 0.444 0.554c0.201 0.137 0.439 0.211 0.683 0.213s0.483-0.069 0.686-0.202l6.634-4.355 6.634 4.355c0.208 0.136 0.452 0.205 0.701 0.2s0.491-0.086 0.692-0.23c0.201-0.145 0.353-0.346 0.434-0.578s0.089-0.483 0.021-0.719l-2.228-7.678 5.527-4.897c0.362-0.322 0.495-0.823 0.339-1.278z"></path>
<path  d="M112.027 8.615c-0.077-0.222-0.217-0.417-0.405-0.561s-0.415-0.231-0.652-0.25l-6.946-0.543-3.006-6.552c-0.096-0.211-0.251-0.39-0.448-0.516s-0.427-0.193-0.661-0.193-0.464 0.067-0.661 0.192c-0.197 0.126-0.353 0.305-0.449 0.516l-3.006 6.553-6.946 0.543c-0.233 0.018-0.456 0.102-0.643 0.242s-0.327 0.329-0.407 0.546c-0.080 0.217-0.094 0.452-0.042 0.676s0.169 0.43 0.337 0.591l5.133 4.927-1.815 7.741c-0.055 0.234-0.037 0.479 0.051 0.704s0.243 0.417 0.444 0.554c0.201 0.137 0.439 0.211 0.683 0.213s0.483-0.069 0.686-0.202l6.634-4.355 6.634 4.355c0.207 0.136 0.452 0.205 0.701 0.2s0.49-0.086 0.692-0.23 0.353-0.346 0.434-0.578c0.081-0.232 0.089-0.483 0.021-0.719l-2.228-7.678 5.527-4.897c0.362-0.322 0.495-0.823 0.339-1.278z"></path>
<path  d="M142.027 8.615c-0.077-0.222-0.217-0.417-0.405-0.561s-0.415-0.231-0.652-0.25l-6.946-0.543-3.006-6.552c-0.096-0.211-0.251-0.39-0.448-0.516s-0.427-0.193-0.661-0.193-0.464 0.067-0.661 0.192c-0.197 0.126-0.353 0.305-0.449 0.516l-3.006 6.553-6.946 0.543c-0.233 0.018-0.456 0.102-0.643 0.242s-0.327 0.329-0.407 0.546c-0.080 0.217-0.094 0.452-0.042 0.676s0.169 0.43 0.337 0.591l5.133 4.927-1.815 7.741c-0.055 0.234-0.037 0.479 0.051 0.704s0.243 0.417 0.444 0.554c0.201 0.137 0.439 0.211 0.683 0.213s0.483-0.069 0.686-0.202l6.634-4.355 6.634 4.355c0.207 0.136 0.452 0.205 0.701 0.2s0.49-0.086 0.692-0.23 0.353-0.346 0.434-0.578c0.081-0.232 0.089-0.483 0.021-0.719l-2.228-7.678 5.527-4.897c0.362-0.322 0.495-0.823 0.339-1.278z"></path>
</symbol>
<symbol id="icon-tick" viewBox="0 0 34 24">
<path fill="#fff" style="fill: var(--color2, #fff)" d="M31.627 0.479c-0.626-0.638-1.641-0.638-2.267 0l-19.205 19.577-7.382-7.525c-0.626-0.638-1.641-0.638-2.267 0s-0.626 1.673 0 2.311l8.515 8.68c0.626 0.638 1.641 0.638 2.267 0l20.338-20.732c0.626-0.638 0.626-1.673 0-2.311z"></path>
</symbol>
<symbol id="icon-triangle" viewBox="0 0 21 24">
<path fill="#02897a" style="fill: var(--color1, #02897a)" d="M19.566 9.668c1.83 1.016 1.83 3.648 0 4.663l-15.866 8.804c-1.777 0.986-3.961-0.299-3.961-2.332v-17.608c0-2.033 2.183-3.318 3.961-2.332l15.866 8.804z"></path>
</symbol>
<symbol id="icon-active" viewBox="0 0 24 24">
<path fill="#000" style="fill: var(--color4, #000)" d="M13.299 3.15l-6.893 2.122c-2.512 0.773-3.583 2.72-2.962 5.384l1.703 7.302c0.621 2.663 2.396 3.734 4.908 2.961l6.893-2.122c2.512-0.773 3.577-2.718 2.955-5.382l-1.703-7.302c-0.621-2.663-2.39-3.736-4.902-2.963z"></path>
<path fill="#e31313" style="fill: var(--color5, #e31313)" opacity="0.5" d="M12.805 6.416l-4.553 1.401c-1.659 0.511-2.378 1.749-1.988 3.423l1.071 4.59c0.391 1.674 1.552 2.334 3.211 1.823l4.553-1.401c1.659-0.511 2.374-1.747 1.983-3.422l-1.071-4.59c-0.391-1.674-1.548-2.335-3.207-1.824z"></path>
<path fill="#f03e3d" style="fill: var(--color6, #f03e3d); stroke: var(--color4, #000)" stroke="#000" stroke-linejoin="round" stroke-linecap="round" stroke-miterlimit="4" stroke-width="0.3529" d="M17.846 6.811l0.123 0.001c1.268 0.031 2.336 0.537 3.091 1.405 0.778 0.893 1.215 2.157 1.215 3.65v6.733c0 1.488-0.436 2.75-1.215 3.642-0.78 0.894-1.893 1.405-3.215 1.405h-6.514c-1.322 0-2.436-0.511-3.218-1.405-0.78-0.892-1.219-2.154-1.219-3.642v-6.733c0-1.493 0.438-2.756 1.218-3.65 0.782-0.895 1.897-1.406 3.219-1.406h6.514z"></path>
<path fill="#000" style="fill: var(--color4, #000)" d="M22.896 5.776c-0.61 0-1.104 0.542-1.104 1.211s0.494 1.211 1.104 1.211c0.61 0 1.104-0.542 1.104-1.211 0-0.321-0.116-0.629-0.323-0.856s-0.488-0.355-0.781-0.355z"></path>
<path fill="#000" style="fill: var(--color4, #000)" d="M18.516 13.769l-2.147 3.039c-0.090 0.132-0.226 0.218-0.375 0.239s-0.3-0.027-0.417-0.13l-2.061-1.773-1.857 2.634c-0.134 0.234-0.396 0.339-0.637 0.256s-0.4-0.334-0.387-0.611c-0.001-0.137 0.041-0.27 0.119-0.376l2.22-3.141c0.089-0.131 0.223-0.217 0.371-0.239s0.298 0.023 0.415 0.123l2.061 1.78 1.81-2.555c0.087-0.132 0.219-0.219 0.366-0.242s0.296 0.020 0.414 0.119c0.243 0.208 0.29 0.59 0.106 0.861v0.014z"></path>
</symbol>
<symbol id="icon-arrow" viewBox="0 0 24 24">
<path fill="#fff" style="fill: var(--color2, #fff)" d="M18.517 13.55l-12.908-12.908c-0.151-0.164-0.353-0.24-0.567-0.24-0.101 0-0.214 0.025-0.303 0.063-0.303 0.126-0.504 0.416-0.504 0.744v18.958c0 0.328 0.202 0.618 0.504 0.744 0.088 0.038 0.202 0.063 0.303 0.063 0.214 0 0.416-0.088 0.567-0.239l3.933-3.933 2.408 5.697c0.176 0.403 0.643 0.605 1.059 0.429l2.231-0.945c0.403-0.176 0.605-0.643 0.429-1.059l-2.534-6h4.815c0.328 0 0.618-0.202 0.744-0.504 0.126-0.29 0.063-0.643-0.176-0.87z"></path>
</symbol>
<symbol id="icon-chart" viewBox="0 0 24 24">
<path fill="#000" style="fill: var(--color4, #000)" d="M12.38 2.447l-6.818 1.949c-2.485 0.71-3.515 2.615-2.85 5.265l1.825 7.267c0.666 2.651 2.451 3.75 4.935 3.040l6.818-1.949c2.485-0.71 3.509-2.613 2.843-5.264l-1.825-7.267c-0.666-2.651-2.444-3.752-4.929-3.042z"></path>
<path fill="#11b5e4" style="fill: var(--color7, #11b5e4)" opacity="0.5" d="M15.74 11.971l-1.238-5.004c-0.449-1.815-1.573-2.629-3.051-2.213l-5.006 1.41c-1.502 0.423-2.084 1.717-1.635 3.533l1.238 5.004c0.456 1.844 1.554 2.634 3.056 2.211l5.006-1.41c1.478-0.416 2.086-1.686 1.63-3.531z"></path>
<path fill="#00acdd" style="fill: var(--color8, #00acdd)" d="M18.308 5.875h-7.058c-2.572 0-4.029 1.555-4.029 4.299v7.524c0 2.744 1.457 4.299 4.029 4.299h7.058c2.572 0 4.023-1.555 4.023-4.299v-7.524c0-2.744-1.451-4.299-4.023-4.299z"></path>
<path fill="#000" style="fill: var(--color4, #000)" d="M18.308 6.209c0.184 0 0.333-0.149 0.333-0.333s-0.149-0.333-0.333-0.333v0.667zM18.308 5.542c-0.184 0-0.333 0.149-0.333 0.333s0.149 0.333 0.333 0.333v-0.667zM18.308 5.542h-7.058v0.667h7.058v-0.667zM11.25 5.542c-1.354 0-2.459 0.411-3.222 1.226-0.761 0.812-1.14 1.978-1.14 3.407h0.667c0-1.316 0.349-2.299 0.96-2.951 0.608-0.649 1.518-1.015 2.736-1.015v-0.667zM6.887 10.175v7.524h0.667v-7.524h-0.667zM6.887 17.698c0 1.428 0.38 2.595 1.14 3.407 0.764 0.815 1.868 1.226 3.222 1.226v-0.667c-1.218 0-2.128-0.366-2.736-1.015-0.611-0.652-0.96-1.635-0.96-2.951h-0.667zM11.25 22.331h7.058v-0.667h-7.058v0.667zM18.308 22.331c1.354 0 2.457-0.411 3.219-1.226 0.759-0.812 1.137-1.978 1.137-3.406h-0.667c0 1.316-0.347 2.299-0.957 2.951-0.606 0.649-1.515 1.015-2.732 1.015v0.667zM22.664 17.698v-7.524h-0.667v7.524h0.667zM22.664 10.175c0-1.428-0.378-2.595-1.137-3.406-0.762-0.815-1.865-1.226-3.219-1.226v0.667c1.218 0 2.126 0.366 2.732 1.015 0.609 0.652 0.957 1.635 0.957 2.951h0.667z"></path>
<path fill="#000" style="fill: var(--color4, #000)" d="M14.802 9.171c-0.342 0-0.625 0.301-0.625 0.674v8.183c0 0.365 0.282 0.666 0.625 0.666 0.349 0 0.631-0.301 0.631-0.666v-8.183c0-0.373-0.282-0.674-0.631-0.674zM11.276 11.816c-0.343 0-0.625 0.301-0.625 0.674v5.539c0 0.365 0.282 0.666 0.625 0.666 0.349 0 0.631-0.301 0.631-0.666v-5.539c0-0.373-0.282-0.674-0.631-0.674zM17.65 15.413c0-0.373 0.282-0.674 0.631-0.674 0.342 0 0.625 0.301 0.625 0.674v2.615c0 0.365-0.282 0.666-0.631 0.666-0.342 0-0.625-0.301-0.625-0.666v-2.615z"></path>
<path fill="#000" style="fill: var(--color4, #000)" d="M14.311 9.845c0-0.308 0.231-0.54 0.491-0.54v-0.267c-0.425 0-0.758 0.37-0.758 0.807h0.267zM14.311 18.028v-8.183h-0.267v8.183h0.267zM14.802 18.561c-0.261 0-0.491-0.233-0.491-0.533h-0.267c0 0.431 0.334 0.8 0.758 0.8v-0.267zM15.3 18.028c0 0.299-0.229 0.533-0.498 0.533v0.267c0.43 0 0.765-0.368 0.765-0.8h-0.267zM15.3 9.845v8.183h0.267v-8.183h-0.267zM14.802 9.305c0.268 0 0.498 0.233 0.498 0.54h0.267c0-0.438-0.334-0.807-0.765-0.807v0.267zM10.785 12.489c0-0.308 0.231-0.54 0.491-0.54v-0.267c-0.425 0-0.758 0.37-0.758 0.807h0.267zM10.785 18.028v-5.539h-0.267v5.539h0.267zM11.276 18.561c-0.261 0-0.491-0.233-0.491-0.533h-0.267c0 0.431 0.334 0.8 0.758 0.8v-0.267zM11.774 18.028c0 0.299-0.229 0.533-0.498 0.533v0.267c0.43 0 0.765-0.368 0.765-0.8h-0.267zM11.774 12.489v5.539h0.267v-5.539h-0.267zM11.276 11.949c0.268 0 0.498 0.233 0.498 0.54h0.267c0-0.438-0.334-0.807-0.765-0.807v0.267zM18.281 14.606c-0.431 0-0.765 0.369-0.765 0.807h0.267c0-0.307 0.23-0.54 0.498-0.54v-0.267zM19.039 15.413c0-0.437-0.333-0.807-0.758-0.807v0.267c0.26 0 0.491 0.232 0.491 0.54h0.267zM19.039 18.028v-2.615h-0.267v2.615h0.267zM18.274 18.828c0.43 0 0.765-0.368 0.765-0.8h-0.267c0 0.299-0.23 0.533-0.498 0.533v0.267zM17.516 18.028c0 0.431 0.334 0.8 0.758 0.8v-0.267c-0.261 0-0.491-0.233-0.491-0.533h-0.267zM17.516 15.413v2.615h0.267v-2.615h-0.267z"></path>
</symbol>
<symbol id="icon-heart" viewBox="0 0 24 24">
<path fill="#fff" style="fill: var(--color2, #fff)" d="M12 21.964c0.214 0 0.429-0.080 0.589-0.241l8.344-8.036c0.12-0.121 3.067-2.813 3.067-6.027 0-3.924-2.397-6.268-6.402-6.268-2.344 0-4.54 1.848-5.598 2.893-1.058-1.045-3.254-2.893-5.598-2.893-4.004 0-6.402 2.344-6.402 6.268 0 3.214 2.946 5.906 3.054 6l8.357 8.062c0.161 0.161 0.375 0.241 0.589 0.241z"></path>
</symbol>
<symbol id="icon-wave" viewBox="0 0 24 24">
<path fill="#fff" style="fill: var(--color2, #fff)" d="M12.643 10.19l1.56 0.726 2.321-0.69v-1.619c0-2.75-2.321-4.952-5.095-4.952-2.762 0-5.095 2.19-5.095 4.917v7.381c0 0.679-0.548 1.214-1.214 1.214s-1.214-0.536-1.214-1.214v-3.119h-3.905c0 3.131 0 3.167 0 3.167 0 2.821 2.286 5.107 5.107 5.107 2.798 0 5.107-2.25 5.107-5.036v-7.286c0-0.667 0.548-1.214 1.214-1.214s1.214 0.548 1.214 1.214v1.405zM18.952 12.833v3.274c0 0.667-0.548 1.202-1.214 1.202s-1.214-0.536-1.214-1.202v-3.214l-2.321 0.69-1.56-0.726v3.19c0 2.798 2.298 5.060 5.107 5.060 2.821 0 5.107-2.286 5.107-5.107 0 0 0-0.036 0-3.167h-3.905z"></path>
</symbol>
<symbol id="icon-plus_circle" viewBox="0 0 24 24">
<path fill="#02897a" style="fill: var(--color1, #02897a)" d="M0 12c0-6.624 5.376-12 12-12s12 5.376 12 12c0 6.624-5.376 12-12 12s-12-5.376-12-12zM13.2 13.2h4.8v-2.4h-4.8v-4.8h-2.4v4.8h-4.8v2.4h4.8v4.8h2.4v-4.8z"></path>
</symbol>
<symbol id="icon-minus_circle" viewBox="0 0 24 24">
<path fill="#02897a" style="fill: var(--color1, #02897a)" d="M0 12c0-6.624 5.376-12 12-12s12 5.376 12 12c0 6.624-5.376 12-12 12s-12-5.376-12-12zM6 13.2h12v-2.4h-12v2.4z"></path>
</symbol>
<symbol id="icon-Accountants" viewBox="0 0 20 24">
<path fill="#d6b1ff" style="fill: var(--color9, #d6b1ff)" d="M19 24h-9c-0.265 0-0.52-0.105-0.707-0.293s-0.293-0.442-0.293-0.707v-2c0-0.265 0.105-0.52 0.293-0.707s0.442-0.293 0.707-0.293h9c0.265 0 0.52 0.105 0.707 0.293s0.293 0.442 0.293 0.707v2c0 0.265-0.105 0.52-0.293 0.707s-0.442 0.293-0.707 0.293z"></path>
<path fill="#11b5e4" style="fill: var(--color7, #11b5e4)" d="M19 0h-18c-0.265 0-0.52 0.105-0.707 0.293s-0.293 0.442-0.293 0.707v2c0 0.265 0.105 0.52 0.293 0.707s0.442 0.293 0.707 0.293h18c0.265 0 0.52-0.105 0.707-0.293s0.293-0.442 0.293-0.707v-2c0-0.265-0.105-0.52-0.293-0.707s-0.442-0.293-0.707-0.293z"></path>
<path fill="#11b5e4" style="fill: var(--color7, #11b5e4)" d="M19 6h-18c-0.265 0-0.52 0.105-0.707 0.293s-0.293 0.442-0.293 0.707v10c0 0.265 0.105 0.52 0.293 0.707s0.442 0.293 0.707 0.293h18c0.265 0 0.52-0.105 0.707-0.293s0.293-0.442 0.293-0.707v-10c0-0.265-0.105-0.52-0.293-0.707s-0.442-0.293-0.707-0.293z"></path>
</symbol>
<symbol id="icon-Enterpreneur" viewBox="0 0 24 24">
<path fill="#d6b1ff" style="fill: var(--color9, #d6b1ff)" d="M18 10h6l-3-4-3 4zM18 14h6l-3 4-3-4z"></path>
<path fill="#02897a" style="fill: var(--color1, #02897a)" d="M1 0h6v24h-6c-0.265 0-0.52-0.105-0.707-0.293s-0.293-0.442-0.293-0.707v-22c0-0.265 0.105-0.52 0.293-0.707s0.442-0.293 0.707-0.293z"></path>
<path fill="#02897a" style="fill: var(--color1, #02897a)" d="M9 0h6c0.265 0 0.52 0.105 0.707 0.293s0.293 0.442 0.293 0.707v22c0 0.265-0.105 0.52-0.293 0.707s-0.442 0.293-0.707 0.293h-6v-24z"></path>
</symbol>
<symbol id="icon-Universities" viewBox="0 0 24 24">
<path fill="#d6b1ff" style="fill: var(--color9, #d6b1ff)" d="M4.364 0h-3.273c-0.289 0-0.567 0.115-0.771 0.32s-0.32 0.482-0.32 0.771v21.818c0 0.289 0.115 0.567 0.32 0.771s0.482 0.32 0.771 0.32h3.273v-24z"></path>
<path fill="#f03e3d" style="fill: var(--color6, #f03e3d)" d="M6.545 24h10.909v-24h-10.909v24zM12 19.636c-0.289 0-0.567-0.115-0.771-0.32s-0.32-0.482-0.32-0.771c0-0.289 0.115-0.567 0.32-0.771s0.482-0.32 0.771-0.32c0.289 0 0.567 0.115 0.771 0.32s0.32 0.482 0.32 0.771c0 0.289-0.115 0.567-0.32 0.771s-0.482 0.32-0.771 0.32zM12 4.364c0.289 0 0.567 0.115 0.771 0.32s0.32 0.482 0.32 0.771c0 0.289-0.115 0.567-0.32 0.771s-0.482 0.32-0.771 0.32c-0.289 0-0.567-0.115-0.771-0.32s-0.32-0.482-0.32-0.771c0-0.289 0.115-0.567 0.32-0.771s0.482-0.32 0.771-0.32zM12 10.909c0.289 0 0.567 0.115 0.771 0.32s0.32 0.482 0.32 0.771c0 0.289-0.115 0.567-0.32 0.771s-0.482 0.32-0.771 0.32c-0.289 0-0.567-0.115-0.771-0.32s-0.32-0.482-0.32-0.771c0-0.289 0.115-0.567 0.32-0.771s0.482-0.32 0.771-0.32z"></path>
<path fill="#f03e3d" style="fill: var(--color6, #f03e3d)" d="M22.909 0h-3.273v24h3.273c0.289 0 0.567-0.115 0.771-0.32s0.32-0.482 0.32-0.771v-21.818c0-0.289-0.115-0.567-0.32-0.771s-0.482-0.32-0.771-0.32z"></path>
</symbol>
<symbol id="icon-facebook" viewBox="0 0 24 24">
<path fill="none" stroke="#02897a" style="stroke: var(--color1, #02897a)" stroke-linejoin="round" stroke-linecap="round" stroke-miterlimit="4" stroke-width="2" d="M18 2h-3c-1.326 0-2.598 0.527-3.536 1.464s-1.464 2.209-1.464 3.536v3h-3v4h3v8h4v-8h3l1-4h-4v-3c0-0.265 0.105-0.52 0.293-0.707s0.442-0.293 0.707-0.293h3v-4z"></path>
</symbol>
<symbol id="icon-instagram-1" viewBox="0 0 24 24">
<path fill="none" stroke="#02897a" style="stroke: var(--color1, #02897a)" stroke-linejoin="round" stroke-linecap="round" stroke-miterlimit="4" stroke-width="2" d="M17 2h-10c-2.761 0-5 2.239-5 5v10c0 2.761 2.239 5 5 5h10c2.761 0 5-2.239 5-5v-10c0-2.761-2.239-5-5-5z"></path>
<path fill="none" stroke="#02897a" style="stroke: var(--color1, #02897a)" stroke-linejoin="round" stroke-linecap="round" stroke-miterlimit="4" stroke-width="2" d="M16 11.37c0.123 0.832-0.019 1.682-0.406 2.429s-1.001 1.352-1.752 1.731c-0.752 0.378-1.603 0.51-2.434 0.376s-1.598-0.526-2.193-1.121-0.987-1.362-1.121-2.193c-0.134-0.831-0.002-1.682 0.376-2.434s0.984-1.365 1.731-1.752c0.747-0.387 1.597-0.53 2.429-0.406 0.849 0.126 1.635 0.521 2.242 1.128s1.002 1.393 1.128 2.242z"></path>
<path fill="none" stroke="#02897a" style="stroke: var(--color1, #02897a)" stroke-linejoin="round" stroke-linecap="round" stroke-miterlimit="4" stroke-width="2" d="M17.5 6.5h0.010"></path>
</symbol>
<symbol id="icon-twitter-1" viewBox="0 0 24 24">
<path fill="none" stroke="#02897a" style="stroke: var(--color1, #02897a)" stroke-linejoin="round" stroke-linecap="round" stroke-miterlimit="4" stroke-width="2" d="M23 3.010c-0.958 0.675-2.018 1.192-3.14 1.53-0.602-0.692-1.403-1.183-2.293-1.406s-1.827-0.167-2.685 0.161c-0.857 0.327-1.594 0.91-2.109 1.669s-0.785 1.659-0.773 2.576v1c-1.757 0.046-3.499-0.344-5.069-1.135s-2.921-1.957-3.931-3.395c0 0-4 9 5 13-2.059 1.398-4.513 2.099-7 2 9 5 20 0 20-11.5-0.001-0.279-0.028-0.556-0.080-0.83 1.021-1.007 1.741-2.277 2.080-3.67v0z"></path>
</symbol>
<symbol id="icon-logo" viewBox="0 0 27 24">
<path fill="#02bc6b" style="fill: var(--color10, #02bc6b)" d="M2.089 22.743c-1.149 0-2.089-0.93-2.089-2.068v-7.229h5.258v-0.008h3.16c0.815-0.021 1.504-0.724 1.504-1.551 0-0.848-0.71-1.551-1.567-1.551l-8.355 0.001v-2.069c0-1.137 0.94-2.068 2.089-2.068h6.266c1.587 0 2.945 0.558 4.052 1.675 1.128 1.096 1.692 2.44 1.692 4.012 0 1.551-0.543 2.895-1.65 3.991s-2.444 1.675-4.010 1.696h-4.261v3.102c0 1.137-0.94 2.068-2.089 2.068z"></path>
<path fill="#02897a" style="fill: var(--color1, #02897a)" d="M16.732 3.8c2.308 2.219 3.47 4.983 3.47 8.124 0 3.089-1.114 5.85-3.386 8.076l-3.226-3.005c1.413-1.384 2.107-3.051 2.107-5.071 0-2.035-0.714-3.7-2.161-5.091l3.196-3.033z"></path>
<path fill="#035b81" style="fill: var(--color11, #035b81)" d="M21.67 0c3.324 3.285 4.996 7.359 4.996 12.034 0 4.602-1.605 8.673-4.874 11.966l-3.113-3.011c2.435-2.452 3.629-5.427 3.629-8.954 0-3.563-1.234-6.535-3.722-8.994l3.085-3.040z"></path>
<path fill="#028e37" style="fill: var(--color12, #028e37)" d="M0 17.59h4.177v3.085c0 1.137-0.94 2.068-2.089 2.068s-2.089-0.93-2.089-2.068v-3.085z"></path>
</symbol>
</defs>
</svg>
